<svg xmlns="http://www.w3.org/2000/svg" viewBox="0 0 64 64">
  <defs>
    <clipPath id="circle-clip">
      <circle cx="32" cy="32" r="32"/>
    </clipPath>
  </defs>
  <circle cx="32" cy="32" r="32" fill="#F0E8D5"/>
  <g clip-path="url(#circle-clip)">
    <ellipse cx="13" cy="46" rx="14" ry="9" fill="#C8A87A"/>
    <ellipse cx="51" cy="46" rx="14" ry="9" fill="#C8A87A"/>
    <!-- road starts higher (y=36 instead of y=40) and wider -->
    <path d="M14 68 Q23 42 32 36 Q41 42 50 68Z" fill="#2D6A4F"/>
    <!-- three dashes down the centre -->
    <rect x="31" y="40" width="2" height="4" fill="#F0E8D5" rx="1"/>
    <rect x="31" y="48" width="2" height="4" fill="#F0E8D5" rx="1"/>
    <rect x="31" y="56" width="2" height="4" fill="#F0E8D5" rx="1"/>
    <!-- microphone -->
    <rect x="27" y="8" width="10" height="13" rx="5" fill="#2D6A4F"/>
    <rect x="31" y="21" width="2" height="4" fill="#2D6A4F"/>
    <rect x="27.5" y="24" width="9" height="2" rx="1" fill="#2D6A4F"/>
    <!-- sound waves -->
    <rect x="12" y="14" width="3" height="7" rx="1.5" fill="#2D6A4F"/>
    <rect x="17" y="11" width="3" height="11" rx="1.5" fill="#2D6A4F"/>
    <rect x="22" y="13" width="3" height="8" rx="1.5" fill="#2D6A4F"/>
    <rect x="39" y="13" width="3" height="8" rx="1.5" fill="#2D6A4F"/>
    <rect x="44" y="11" width="3" height="11" rx="1.5" fill="#2D6A4F"/>
    <rect x="49" y="14" width="3" height="7" rx="1.5" fill="#2D6A4F"/>
  </g>
</svg>
